{"glyphs":{"0":{"ha":613,"x_min":30,"x_max":585,"o":"m 30 403 q 60 605 30 510 q 263 764 144 764 l 270 764 q 347 749 309 764 q 509 601 456 704 q 585 340 585 457 l 585 278 q 505 69 585 138 q 319 0 377 0 q 91 111 170 0 q 30 403 37 237 m 351 572 q 326 524 326 555 l 326 521 l 326 498 q 326 492 326 496 q 327 487 327 488 q 393 396 339 396 q 469 479 444 396 q 473 505 473 491 l 473 514 q 437 579 473 562 q 399 587 422 587 q 351 572 373 587 z "},"1":{"ha":450,"x_min":26,"x_max":418,"o":"m 26 514 l 26 548 q 282 764 146 764 l 301 764 q 418 534 418 731 l 418 515 q 388 142 418 323 q 263 0 355 0 l 194 0 q 114 163 114 0 q 126 467 114 224 l 119 480 q 26 514 26 491 z "},"2":{"ha":617,"x_min":30,"x_max":586,"o":"m 30 457 l 30 458 l 30 460 q 68 605 30 538 q 69 609 68 608 q 316 764 182 764 l 350 764 q 397 758 365 764 q 403 757 401 758 q 586 503 586 675 l 586 457 q 576 415 586 439 q 545 363 566 384 q 505 305 529 347 q 479 263 481 266 q 472 244 472 254 q 476 229 472 236 q 495 218 483 218 q 496 219 496 218 q 498 220 496 220 q 522 224 507 222 l 528 224 q 534 222 532 224 q 585 140 585 202 q 537 27 585 53 q 372 0 487 0 l 327 0 q 130 7 277 0 q 31 50 47 7 q 30 61 30 54 l 30 71 q 53 122 34 99 q 99 155 71 144 q 186 218 145 171 q 254 323 228 266 q 294 412 288 396 q 313 464 304 435 q 315 472 315 467 q 311 487 315 480 q 298 496 305 496 l 297 496 q 281 488 288 496 q 85 359 171 359 l 75 359 q 62 363 68 359 q 30 457 30 385 z "},"3":{"ha":613,"x_min":30,"x_max":585,"o":"m 53 647 l 57 681 q 58 685 57 682 l 60 688 q 176 764 85 764 l 266 764 q 355 758 316 764 q 548 624 544 749 l 548 610 q 526 566 548 583 q 475 534 507 548 q 467 522 467 529 q 472 511 467 517 q 585 269 585 406 l 585 266 l 585 263 q 345 0 553 34 l 342 0 l 339 0 l 307 0 q 220 14 258 3 l 217 14 q 30 206 30 83 l 30 216 l 30 224 q 195 326 57 326 l 201 326 q 270 277 255 326 q 271 269 271 274 q 319 186 274 186 q 384 283 372 186 l 384 286 l 384 289 q 317 389 382 354 q 307 392 309 392 q 197 454 228 393 q 194 464 194 460 l 194 468 l 194 471 l 194 479 q 198 491 194 486 q 231 538 214 518 q 237 556 237 545 l 237 557 q 224 571 237 571 q 137 559 221 571 l 133 559 l 84 559 q 64 568 69 559 q 53 618 53 583 l 53 643 l 53 644 l 53 647 z "},"4":{"ha":614,"x_min":27,"x_max":583,"o":"m 552 579 l 583 159 l 583 99 q 479 0 571 0 l 454 0 q 339 152 339 20 q 345 263 339 183 l 345 266 l 345 269 q 332 283 345 282 l 222 263 q 27 395 27 263 l 27 408 q 39 494 30 450 q 144 658 90 658 l 161 658 q 259 566 259 620 l 254 519 q 302 475 254 479 q 328 507 326 479 q 320 600 320 567 l 320 625 q 423 764 320 764 q 552 605 552 764 l 552 579 z "},"5":{"ha":610,"x_min":9,"x_max":640,"o":"m 137 720 q 467 758 209 779 q 530 713 510 754 q 530 627 551 673 l 529 624 l 522 608 q 511 593 517 597 q 491 585 500 585 l 490 586 q 487 586 488 586 q 289 576 302 610 l 286 571 q 293 545 286 548 l 298 543 q 393 524 370 533 l 430 507 q 559 190 640 376 q 556 183 559 187 q 553 176 553 179 q 538 152 547 160 q 153 31 359 -60 l 142 37 q 30 224 9 95 l 35 237 q 98 293 54 281 q 142 300 115 300 q 240 256 201 300 l 240 255 q 278 235 254 239 q 294 232 289 232 q 357 262 331 229 q 374 334 384 296 q 349 366 370 358 q 305 377 327 376 l 167 385 q 144 392 156 387 q 111 437 115 406 q 121 696 84 601 l 122 701 q 137 720 125 711 z "},"6":{"ha":628,"x_min":27,"x_max":651,"o":"m 129 594 q 198 666 168 642 q 589 730 393 777 q 598 712 595 728 l 598 703 q 556 616 598 648 q 412 545 502 570 q 316 510 335 533 l 309 499 q 305 491 305 495 q 311 481 305 484 l 320 475 q 479 471 434 505 l 536 426 q 540 119 651 266 l 534 113 l 502 79 q 170 64 347 -72 l 126 96 q 75 157 98 117 q 28 330 28 235 q 73 511 27 425 q 109 567 95 549 l 129 594 m 358 336 l 343 336 q 293 326 317 336 q 251 270 254 309 l 251 266 q 252 252 251 256 q 297 205 259 214 q 320 201 308 201 q 384 235 361 201 l 388 240 q 403 282 403 258 q 402 288 403 285 q 401 293 401 292 q 358 336 395 330 z "},"7":{"ha":610,"x_min":27,"x_max":583,"o":"m 27 606 q 213 764 27 764 l 258 764 q 460 730 328 764 q 583 621 583 708 l 583 572 q 505 355 572 476 q 247 0 307 0 l 229 0 q 100 102 100 23 l 100 110 q 277 467 113 244 q 282 486 282 480 q 269 505 282 498 l 263 505 q 163 477 197 477 q 100 484 134 477 q 27 593 27 484 l 27 606 z "},"8":{"ha":614,"x_min":31,"x_max":586,"o":"m 56 621 l 58 627 q 100 688 72 666 q 349 764 197 764 l 388 758 q 586 595 586 707 l 586 586 q 514 452 571 507 q 456 385 456 393 q 453 377 453 380 q 456 366 453 372 q 563 195 563 267 l 563 194 q 552 134 563 164 q 338 0 505 0 l 320 0 l 308 0 q 111 71 197 4 q 31 214 31 133 l 31 220 q 62 310 31 245 q 138 410 94 374 q 140 418 140 412 q 138 427 140 425 q 61 532 84 484 q 50 583 50 557 q 56 621 50 605 m 359 305 q 274 227 274 289 l 274 220 l 274 218 q 281 193 274 206 q 331 164 296 164 q 380 190 361 164 q 396 225 389 205 q 397 243 397 231 l 397 252 q 359 305 389 305 m 354 680 l 354 678 q 289 616 309 678 q 286 598 286 605 l 286 593 q 308 547 290 564 q 343 532 320 532 l 345 532 q 349 532 346 532 q 353 533 351 533 q 433 612 433 545 q 372 677 433 659 q 358 680 363 680 l 354 680 z "},"9":{"ha":627,"x_min":-24,"x_max":600,"o":"m 499 149 q 429 77 463 106 q 38 14 233 -34 q 30 31 33 15 l 30 41 q 71 127 30 95 q 216 198 127 174 q 311 233 292 210 l 319 244 q 321 252 321 247 q 316 262 321 259 l 307 269 q 149 273 194 239 l 91 317 q 87 624 -24 477 l 92 631 l 125 665 q 457 680 278 814 l 500 647 q 553 586 530 624 q 600 414 600 509 q 553 232 600 319 q 518 176 532 194 l 499 149 m 269 407 l 285 407 q 335 418 311 407 q 376 473 373 434 l 376 477 q 374 491 376 487 q 331 538 368 530 q 307 543 321 543 q 244 509 267 543 l 240 503 q 224 461 224 484 q 224 455 224 458 q 225 450 225 452 q 269 407 232 414 z "},"\r":{"ha":69,"x_min":0,"x_max":0,"o":""},"\n":{"ha":69,"x_min":0,"x_max":0,"o":""}," ":{"ha":277,"x_min":0,"x_max":0,"o":""},"!":{"ha":313,"x_min":31,"x_max":282,"o":"m 33 608 q 31 629 31 614 q 69 724 31 686 q 163 764 109 764 l 165 764 q 248 728 213 764 q 282 646 282 694 l 282 617 l 282 614 l 282 612 q 263 458 263 483 q 171 252 263 252 q 72 357 83 252 q 61 444 69 399 q 33 608 41 559 m 77 39 l 77 41 q 79 50 77 47 q 130 109 88 92 q 161 114 142 114 q 208 103 190 114 q 245 64 245 84 q 221 11 245 31 q 194 0 208 0 l 121 0 l 119 0 q 107 1 111 0 q 85 15 95 4 q 77 39 77 24 z "},"\"":{"ha":339,"x_min":24,"x_max":324,"o":"m 65 764 q 94 754 91 764 l 94 751 q 81 631 114 658 q 64 625 76 625 q 39 642 46 625 l 39 643 l 37 652 q 38 743 24 688 q 64 764 42 764 l 65 764 m 244 743 q 271 764 248 764 q 298 755 294 764 l 301 751 q 292 632 324 663 q 274 625 285 625 q 250 642 256 625 l 245 651 q 244 743 232 688 z "},"#":{"ha":707,"x_min":18,"x_max":681,"o":"m 453 681 l 454 681 q 507 715 491 685 q 545 764 540 764 q 571 753 560 764 q 606 693 606 718 q 681 585 681 632 q 597 475 669 475 q 547 308 563 475 l 547 302 q 589 193 589 205 q 518 90 589 117 q 430 0 464 0 q 399 16 411 0 q 369 58 384 35 q 366 70 369 65 q 354 78 362 75 q 337 83 346 81 q 313 84 328 84 q 284 84 297 84 q 250 83 271 84 q 212 83 228 83 q 138 3 193 26 q 126 0 130 0 q 118 1 121 0 q 96 20 103 5 q 38 117 62 79 q 33 203 18 149 q 79 270 49 256 l 80 270 q 187 495 110 270 l 187 500 q 117 578 117 536 l 117 590 q 155 666 117 632 q 255 700 194 700 q 309 764 292 754 l 312 764 l 313 764 l 315 764 q 324 760 323 764 q 355 724 343 736 q 395 696 368 711 q 453 681 423 681 m 340 495 q 279 328 317 495 q 308 289 294 289 q 369 296 335 289 q 434 469 399 296 l 415 488 q 340 495 381 488 z "},"$":{"ha":606,"x_min":24,"x_max":581,"o":"m 121 510 q 221 608 121 555 q 301 758 221 720 q 323 764 315 764 q 355 750 339 764 q 368 732 363 742 q 411 644 401 644 l 469 644 l 471 644 l 473 644 q 549 620 514 644 q 581 559 581 597 l 581 557 l 581 557 q 543 492 581 514 q 492 480 518 480 l 490 480 q 369 437 369 480 q 384 395 372 411 q 511 273 511 338 l 511 247 q 431 168 511 208 q 346 4 431 38 q 324 0 336 0 q 283 16 300 0 l 281 19 q 264 47 269 31 q 199 137 241 137 l 141 125 q 34 199 92 125 q 24 224 24 212 q 31 245 24 235 q 76 297 57 285 q 95 302 87 302 q 98 302 96 302 q 100 301 99 301 q 189 290 179 290 q 252 358 252 305 l 252 363 q 210 400 231 400 q 121 498 121 425 l 121 510 z "},"%":{"ha":749,"x_min":26,"x_max":723,"o":"m 26 597 q 126 703 61 703 l 163 703 q 189 659 189 692 l 189 640 q 102 541 189 587 q 26 597 77 541 m 163 142 l 170 180 l 381 560 q 524 690 438 690 l 549 690 q 636 597 620 690 l 636 585 q 437 311 636 529 q 213 80 286 88 q 163 136 172 80 l 163 142 m 562 118 q 661 224 597 224 l 699 224 q 723 180 723 214 l 723 161 q 636 61 723 107 q 562 118 614 61 z "},"&":{"ha":648,"x_min":27,"x_max":624,"o":"m 81 522 q 91 604 84 567 q 247 697 141 697 q 319 690 288 690 l 332 690 q 507 503 507 640 l 507 448 l 507 446 l 507 445 q 494 392 507 415 q 457 330 457 363 l 457 317 l 494 267 q 624 142 624 194 q 494 24 551 24 l 408 87 l 400 87 q 220 0 283 0 l 208 0 q 27 161 27 0 q 64 267 27 228 q 189 342 189 313 l 189 361 l 184 373 q 81 522 81 422 m 270 262 q 212 180 225 262 l 212 149 q 266 62 217 62 q 332 156 332 99 l 332 187 q 270 262 332 248 m 305 585 q 220 491 247 585 l 220 479 q 279 411 233 434 q 363 515 363 441 q 305 585 363 576 z "},"'":{"ha":133,"x_min":24,"x_max":117,"o":"m 65 764 q 94 755 90 764 l 95 751 q 84 629 117 659 q 65 623 75 623 q 41 639 47 623 l 37 650 q 37 742 24 686 q 64 764 42 764 l 65 764 z "},"(":{"ha":518,"x_min":30,"x_max":490,"o":"m 30 380 q 121 666 30 545 q 151 697 129 678 q 229 747 186 727 q 381 743 307 784 q 472 618 456 703 q 473 616 473 617 q 476 586 476 597 q 473 557 476 576 l 473 556 q 441 477 467 511 q 377 373 377 391 l 377 361 q 399 298 377 328 q 400 296 399 297 q 404 292 401 294 q 407 288 406 289 q 490 132 490 189 l 490 106 q 362 4 490 35 q 323 0 345 0 q 260 12 292 0 q 30 317 30 106 l 30 380 z "},")":{"ha":518,"x_min":31,"x_max":491,"o":"m 491 380 l 491 317 q 259 12 491 106 q 197 0 228 0 q 157 4 176 0 q 31 106 31 35 l 31 132 q 113 288 31 190 q 118 294 114 290 q 122 298 122 297 q 142 361 142 327 l 142 373 q 80 477 142 393 q 46 556 52 514 l 46 557 q 45 586 45 567 q 46 616 45 606 l 47 618 q 138 743 64 703 q 290 747 213 784 q 369 697 334 727 q 399 666 391 678 q 491 380 491 543 z "},"*":{"ha":617,"x_min":33,"x_max":586,"o":"m 220 709 q 300 764 270 764 l 323 764 l 324 764 l 326 764 l 357 758 q 366 754 365 755 q 442 708 425 708 l 517 708 q 585 650 567 708 q 586 643 586 647 l 586 642 q 522 503 585 579 q 517 488 517 495 q 525 471 517 477 q 579 372 579 422 q 510 289 579 330 q 499 285 502 285 l 473 285 q 406 323 452 285 l 399 323 q 376 269 392 298 q 319 235 358 235 q 266 262 286 235 q 233 311 252 282 q 214 320 227 320 l 212 320 l 209 319 q 195 315 205 317 q 179 311 186 313 q 176 310 178 311 q 172 309 174 309 l 138 309 q 45 376 61 309 l 45 381 l 45 391 q 56 442 46 415 l 60 450 q 88 488 75 464 q 91 499 91 494 q 87 513 91 507 q 33 608 33 585 l 33 629 l 33 637 q 95 718 49 688 q 107 720 100 720 l 134 720 q 141 719 138 720 q 199 701 179 705 l 202 701 q 220 709 212 701 z "},"+":{"ha":608,"x_min":26,"x_max":582,"o":"m 214 518 q 285 730 214 730 l 300 730 q 363 662 334 730 q 388 513 372 513 q 498 518 465 518 q 582 369 582 487 l 582 357 q 498 245 568 245 l 418 245 l 408 239 l 414 164 l 414 140 q 294 34 389 34 l 285 34 q 195 140 208 34 l 195 258 q 175 270 195 270 l 151 270 q 26 357 26 290 l 26 376 q 81 457 26 418 q 214 488 214 469 l 214 518 z "},",":{"ha":153,"x_min":27,"x_max":125,"o":"m 98 68 q 125 49 125 60 l 125 46 q 71 -68 114 -50 q 41 -66 56 -75 q 27 -43 27 -57 l 27 -33 q 61 57 27 7 q 87 69 69 69 q 98 68 95 69 z "},"-":{"ha":614,"x_min":31,"x_max":586,"o":"m 31 389 l 41 411 q 502 442 41 430 q 586 387 586 422 q 492 320 586 320 l 442 320 q 298 330 395 320 q 31 377 31 330 l 31 389 z "},".":{"ha":189,"x_min":30,"x_max":160,"o":"m 30 52 l 30 53 l 30 60 q 60 111 42 111 l 118 111 l 119 113 q 155 96 138 113 q 160 87 160 91 l 160 68 q 140 27 160 43 q 99 4 126 16 q 85 0 87 0 q 83 1 84 0 q 80 1 81 1 q 34 35 49 8 q 30 52 30 43 z "},"/":{"ha":335,"x_min":30,"x_max":308,"o":"m 308 703 l 308 696 q 146 54 308 505 q 100 0 129 14 q 37 75 73 0 q 30 136 33 95 q 183 675 30 304 q 274 764 243 764 l 285 764 q 308 703 308 743 z "},":":{"ha":194,"x_min":33,"x_max":163,"o":"m 33 484 l 33 486 l 33 494 q 64 553 45 553 l 121 553 q 157 536 144 553 q 163 525 163 530 l 163 496 l 163 495 q 151 464 163 479 q 107 431 133 444 q 87 427 99 427 q 73 429 77 427 q 37 465 47 439 q 33 484 33 473 m 33 58 l 33 66 q 64 126 45 126 l 121 126 q 157 110 145 126 q 163 99 163 104 l 163 69 q 151 38 163 53 q 107 5 133 18 q 87 0 96 0 q 73 3 81 0 q 37 38 46 14 q 33 58 33 46 z "},";":{"ha":161,"x_min":31,"x_max":132,"o":"m 106 62 q 111 53 111 57 l 111 49 q 47 -69 100 -69 q 31 -42 31 -60 l 31 -41 l 31 -30 q 53 50 34 15 q 84 69 62 69 q 106 62 96 69 m 47 515 q 68 556 56 556 l 115 556 q 132 538 132 545 l 132 511 q 88 476 126 495 q 47 507 62 476 l 47 515 z "},"<":{"ha":609,"x_min":27,"x_max":583,"o":"m 27 336 q 157 438 27 363 q 420 572 288 513 q 557 620 552 631 q 500 536 553 594 q 397 429 448 477 q 346 378 346 381 q 370 360 346 377 q 429 317 393 343 q 499 263 464 292 q 559 206 534 235 q 583 160 583 178 q 439 153 563 134 q 172 230 316 171 q 27 336 27 289 z "},"=":{"ha":620,"x_min":33,"x_max":587,"o":"m 33 536 l 42 556 q 503 586 42 574 q 587 533 587 567 q 494 472 587 472 l 444 472 q 300 480 404 472 q 33 524 33 480 l 33 536 m 33 243 l 42 262 q 503 290 42 281 q 587 239 587 271 q 494 179 587 179 l 444 179 q 300 187 404 179 q 33 231 33 187 l 33 243 z "},">":{"ha":609,"x_min":27,"x_max":583,"o":"m 583 336 q 439 230 583 289 q 171 153 294 171 q 27 160 47 134 q 41 191 27 172 q 75 230 54 210 q 122 271 96 250 q 173 310 148 292 q 219 343 198 328 q 253 368 240 358 q 266 378 266 377 q 215 429 266 381 q 111 536 164 477 q 54 620 58 594 q 191 572 60 631 q 453 438 323 513 q 583 336 583 363 z "},"?":{"ha":610,"x_min":27,"x_max":583,"o":"m 27 560 q 62 650 27 600 q 288 764 155 764 l 362 764 q 442 751 404 764 q 583 598 583 680 q 560 509 581 548 q 422 336 506 412 q 232 255 340 263 l 202 255 q 152 277 172 255 q 134 330 132 298 q 160 380 136 359 l 164 382 l 164 401 q 123 433 151 433 q 27 522 27 457 l 27 560 m 90 54 q 96 72 90 62 q 305 127 144 127 l 307 127 q 331 125 315 127 q 378 95 378 115 l 378 71 q 255 0 378 0 l 198 0 q 96 35 127 0 q 90 54 90 45 z "},"@":{"ha":814,"x_min":31,"x_max":784,"o":"m 31 262 q 111 503 38 377 q 339 582 231 582 q 434 566 388 582 q 552 397 552 525 q 528 311 540 328 q 547 279 532 279 l 566 279 q 720 435 628 403 q 783 317 768 435 q 784 300 784 312 q 777 250 784 270 q 566 38 692 38 q 472 62 548 38 l 460 62 q 323 0 393 0 q 106 69 247 0 q 31 262 43 130 m 429 416 q 342 317 358 416 q 391 267 342 267 q 465 354 448 267 q 441 416 460 416 l 429 416 z "},"A":{"ha":623,"x_min":34,"x_max":589,"o":"m 34 283 q 129 636 34 472 q 175 692 148 665 q 403 754 278 793 l 404 754 q 589 311 589 640 l 589 233 l 589 229 q 578 122 589 170 q 479 0 549 0 l 473 0 q 435 12 454 0 q 372 79 393 38 q 294 138 335 138 l 283 138 q 252 109 277 138 q 208 46 227 76 q 159 0 178 0 l 144 0 q 91 35 111 0 q 34 263 34 133 l 34 283 m 339 560 q 279 477 292 560 q 302 406 279 437 q 339 378 317 384 q 380 387 361 373 q 414 477 414 411 l 414 484 q 339 560 414 548 z "},"B":{"ha":621,"x_min":35,"x_max":598,"o":"m 42 513 l 41 513 q 41 514 41 513 q 145 743 38 686 q 316 743 225 788 q 425 609 404 701 q 397 442 442 530 q 392 422 392 431 q 393 412 392 415 q 419 389 399 389 q 423 391 420 389 l 426 391 q 473 404 449 404 q 513 395 491 404 q 578 321 557 372 q 586 214 598 270 q 540 106 574 157 q 435 24 506 54 q 274 1 365 -5 l 270 1 q 104 72 172 3 q 35 239 35 141 l 35 240 q 41 374 35 275 q 42 513 46 473 m 279 677 q 220 642 235 669 q 218 582 205 614 q 277 533 236 541 q 349 552 317 525 q 372 623 380 579 q 279 677 358 690 m 363 281 l 362 281 q 353 247 353 264 q 355 229 353 240 q 386 180 363 197 q 438 167 408 164 q 524 262 533 167 q 481 320 525 302 q 446 327 464 327 q 363 281 393 327 z "},"C":{"ha":618,"x_min":31,"x_max":586,"o":"m 31 349 q 163 707 31 600 q 324 764 232 764 q 410 749 368 764 l 411 749 q 464 709 444 735 q 491 650 486 682 q 494 614 494 639 q 490 574 494 594 q 458 522 477 522 l 374 522 q 302 393 302 522 l 302 380 q 346 308 302 331 q 425 316 388 286 q 457 349 437 326 q 484 363 468 361 l 487 363 l 490 363 q 502 361 494 363 q 586 213 585 350 l 586 212 q 526 85 586 134 q 345 0 423 0 q 294 4 319 0 q 127 71 159 26 q 31 349 31 182 z "},"D":{"ha":623,"x_min":35,"x_max":590,"o":"m 35 346 q 103 764 53 764 l 179 764 q 391 736 307 764 q 590 431 590 643 l 590 339 q 564 203 590 282 q 538 142 553 168 q 233 0 456 0 l 220 0 q 35 39 54 0 l 35 346 m 467 557 q 400 484 412 557 q 399 469 399 480 l 399 457 q 412 427 400 444 q 491 399 441 388 q 551 457 538 408 q 553 463 552 460 q 553 469 553 467 q 555 484 555 473 q 543 525 555 507 q 498 553 524 548 q 469 557 483 557 l 467 557 z "},"E":{"ha":614,"x_min":31,"x_max":605,"o":"m 31 414 q 61 585 31 469 q 134 711 80 658 q 254 764 191 764 l 298 764 q 476 624 476 764 l 476 623 q 454 593 476 602 q 359 559 410 582 q 322 515 330 544 q 335 464 315 487 q 365 445 351 448 q 449 414 448 426 q 457 393 457 406 q 446 369 457 380 q 389 342 418 359 q 361 290 361 324 q 368 264 361 278 q 369 263 369 263 q 370 260 369 260 q 448 227 395 217 q 514 241 494 235 q 562 212 540 241 q 574 88 605 153 q 465 8 543 23 q 372 0 420 0 l 368 0 q 162 67 252 1 q 49 233 72 133 q 31 404 31 313 l 31 414 z "},"F":{"ha":612,"x_min":34,"x_max":589,"o":"m 38 102 q 34 137 34 119 l 34 144 q 87 639 49 553 q 194 735 113 696 q 324 764 255 764 q 351 762 342 764 q 362 762 355 762 q 372 761 369 762 q 589 609 589 728 l 589 608 q 563 552 589 576 q 498 526 537 529 q 439 517 477 525 q 391 475 399 509 q 415 420 382 441 l 416 420 l 484 381 q 496 362 496 374 q 448 301 496 317 q 346 221 346 252 q 377 75 377 90 q 368 49 377 58 q 221 0 323 0 l 201 0 l 199 0 q 149 5 182 0 q 38 102 57 24 z "},"G":{"ha":614,"x_min":31,"x_max":585,"o":"m 31 391 q 49 509 34 454 q 133 686 71 605 q 258 764 194 764 l 286 764 l 288 764 q 374 739 335 764 q 427 652 427 705 l 427 576 q 362 522 427 528 q 312 510 334 519 q 251 416 251 483 l 251 411 q 252 402 251 408 q 252 393 252 396 q 273 273 263 293 q 340 209 293 228 q 354 205 353 205 q 368 209 355 205 q 397 267 392 222 l 397 302 q 438 377 397 359 l 439 377 q 499 355 473 389 q 585 117 552 282 l 585 110 q 521 24 585 24 q 461 46 487 24 q 433 58 449 57 l 418 58 q 365 28 399 58 q 296 0 336 3 l 294 0 q 269 1 277 0 q 87 129 157 16 q 31 328 31 221 l 31 335 l 31 391 z "},"H":{"ha":621,"x_min":33,"x_max":587,"o":"m 382 647 l 382 658 l 382 673 q 454 764 388 734 l 456 764 q 499 746 481 761 q 545 678 532 718 q 583 491 581 590 q 587 342 587 372 q 559 100 587 174 q 458 3 529 22 q 434 0 450 0 l 425 0 q 412 4 418 0 q 391 31 399 11 q 385 72 382 49 q 388 100 385 73 q 392 142 391 127 q 396 186 395 172 q 397 205 397 193 q 315 278 397 274 l 290 278 q 227 198 227 267 q 228 178 227 184 q 237 58 237 122 l 237 57 l 237 56 q 231 27 237 39 q 195 0 220 4 l 187 0 q 174 1 178 0 q 118 39 141 11 q 73 130 85 80 q 33 399 33 282 q 60 608 35 511 q 96 720 80 694 q 164 764 123 764 l 165 764 q 213 753 189 764 q 237 600 237 753 q 238 593 237 598 q 239 586 239 589 l 239 572 q 264 500 241 528 q 320 471 290 471 q 372 510 351 471 q 387 574 387 538 l 387 581 q 385 614 387 590 q 382 647 382 637 z "},"I":{"ha":278,"x_min":35,"x_max":244,"o":"m 35 172 q 52 517 43 311 q 123 764 60 753 l 130 764 q 171 749 152 762 q 243 161 197 749 q 243 151 243 157 q 244 141 244 144 q 228 62 244 99 q 134 0 199 0 q 35 130 43 0 l 35 152 l 35 172 z "},"J":{"ha":620,"x_min":33,"x_max":587,"o":"m 343 680 q 372 746 346 722 q 429 760 399 770 q 460 741 446 754 q 587 338 587 490 l 587 285 l 587 281 q 566 161 587 222 q 319 0 502 0 l 300 0 q 123 35 182 0 q 33 304 33 100 q 72 410 33 363 q 148 449 100 446 l 153 449 q 193 423 176 446 q 212 368 209 400 q 263 244 224 244 q 362 381 350 244 l 362 389 q 343 671 361 524 l 343 680 z "},"K":{"ha":620,"x_min":35,"x_max":590,"o":"m 35 229 l 35 241 l 35 256 q 50 576 35 431 q 87 730 62 684 q 142 764 104 764 q 189 746 168 764 q 221 681 217 720 q 250 574 239 574 q 258 571 255 571 q 264 572 263 571 q 298 620 266 572 q 368 715 331 667 q 416 764 404 764 l 427 764 q 507 651 507 764 q 498 595 505 618 q 497 594 498 594 q 496 593 496 594 q 387 431 468 513 l 387 423 q 419 382 387 391 q 590 113 590 307 l 590 106 q 513 0 583 16 l 509 0 q 479 5 491 0 q 365 83 430 23 q 267 205 308 138 q 250 213 260 213 q 237 206 241 213 q 228 180 228 194 l 228 178 q 229 155 228 163 q 231 132 231 146 l 231 130 q 228 91 231 118 q 203 30 224 60 q 148 0 183 0 q 45 129 73 0 q 35 228 35 175 l 35 229 z "},"L":{"ha":620,"x_min":34,"x_max":589,"o":"m 34 350 l 34 354 q 39 471 34 420 q 180 764 60 764 l 186 764 l 210 760 q 250 746 233 755 q 313 593 313 708 l 313 556 q 307 350 313 502 l 307 347 q 311 330 307 338 q 338 313 320 313 l 340 313 l 345 313 q 446 346 401 346 l 460 346 q 480 340 473 343 q 575 266 560 311 q 589 189 586 232 q 576 107 589 146 q 376 3 553 31 q 334 0 362 0 l 328 0 l 326 0 q 269 5 294 0 l 250 9 q 34 289 34 58 l 34 313 l 34 350 z "},"M":{"ha":620,"x_min":34,"x_max":587,"o":"m 335 536 q 349 581 345 553 q 453 764 388 764 q 543 659 498 764 q 544 654 544 658 q 587 404 587 487 q 566 98 587 220 l 562 81 q 558 72 560 79 q 555 62 556 65 q 522 18 545 35 q 468 0 498 0 q 412 19 437 0 q 378 68 387 38 l 378 71 q 377 75 378 72 q 375 81 376 79 q 374 87 374 84 q 369 136 373 103 q 363 188 365 168 q 357 230 361 208 q 351 263 354 252 q 345 274 347 274 q 339 277 342 277 q 328 271 334 277 q 324 262 327 270 q 309 231 316 240 q 285 235 297 214 l 271 259 q 260 266 267 266 q 250 259 254 266 q 237 113 237 259 q 236 102 237 104 q 141 0 208 0 l 137 0 q 34 274 34 0 q 38 395 34 336 l 38 399 q 176 764 92 732 l 182 764 l 194 764 l 198 764 q 275 642 237 747 q 323 528 317 528 q 335 536 330 528 z "},"N":{"ha":624,"x_min":35,"x_max":590,"o":"m 365 500 q 363 547 363 514 q 366 635 363 567 q 439 762 376 751 q 444 763 441 762 q 449 764 448 764 q 464 762 458 764 q 495 750 481 758 q 518 724 511 739 q 589 411 585 598 q 590 353 590 392 q 579 152 590 236 q 578 138 579 142 q 564 88 571 107 q 455 1 538 9 q 331 64 372 -8 l 330 66 q 277 248 298 123 q 267 263 275 255 q 260 266 264 266 q 250 258 255 266 q 244 237 244 251 l 244 236 q 255 127 247 183 q 258 100 258 111 q 256 79 258 85 q 172 0 247 0 l 163 0 q 106 30 144 0 q 35 332 35 84 l 35 361 q 60 610 35 468 q 72 658 64 636 q 180 764 106 764 q 264 663 214 764 q 317 522 301 589 q 347 439 340 439 l 354 439 q 366 454 366 439 l 365 500 z "},"O":{"ha":616,"x_min":30,"x_max":583,"o":"m 30 400 q 42 528 30 464 q 103 674 57 613 q 269 764 170 764 q 368 738 321 761 q 544 540 490 677 q 583 334 581 444 l 583 264 q 540 123 581 184 q 427 28 496 58 q 319 0 363 0 l 296 0 q 141 66 213 0 q 30 400 65 137 m 380 586 q 326 505 326 586 l 326 492 l 326 490 l 326 486 q 374 396 336 408 q 389 393 382 393 q 410 397 399 393 q 471 484 456 415 q 472 495 472 488 l 472 511 q 418 585 472 568 q 404 586 414 586 l 403 586 l 380 586 z "},"P":{"ha":617,"x_min":31,"x_max":586,"o":"m 31 448 q 88 635 33 526 q 290 764 142 741 l 297 764 q 418 745 381 764 q 583 533 563 663 q 586 491 586 519 l 586 475 l 582 395 q 559 345 582 369 q 468 293 524 307 q 361 237 365 271 q 368 197 361 214 q 376 176 370 190 q 385 153 382 161 q 395 109 395 129 q 385 64 395 84 l 376 45 q 252 0 354 4 l 233 0 q 199 5 214 0 q 100 81 138 26 q 31 448 31 186 m 437 646 q 362 568 377 646 q 361 564 362 567 q 361 557 361 560 q 361 552 361 555 q 362 548 362 549 q 415 488 368 513 q 442 481 429 481 q 481 496 464 481 q 503 533 499 513 l 503 537 q 504 544 503 540 q 505 549 505 548 q 502 568 505 555 q 437 646 477 646 z "},"Q":{"ha":614,"x_min":31,"x_max":586,"o":"m 31 362 q 34 416 31 399 q 68 566 42 490 q 259 764 134 764 l 274 764 q 403 718 354 764 q 496 369 496 656 l 492 277 q 522 244 513 244 q 586 111 586 224 q 496 0 586 20 l 487 0 q 412 43 449 0 q 307 5 372 26 q 267 0 290 0 q 239 3 258 0 q 230 4 236 3 q 221 7 224 5 q 31 362 31 69 m 289 560 q 224 475 240 560 l 224 442 q 283 349 231 349 q 358 448 358 387 l 358 481 q 289 560 358 545 z "},"R":{"ha":620,"x_min":34,"x_max":590,"o":"m 35 334 q 92 629 35 467 q 286 764 145 764 q 343 758 317 764 q 507 533 500 701 q 449 321 507 498 l 449 319 l 449 316 q 460 292 449 300 q 483 281 471 282 q 564 233 532 273 q 590 157 590 199 q 586 125 590 141 q 490 3 560 20 q 464 0 481 0 l 461 0 q 286 161 406 0 l 279 161 l 278 161 q 263 155 270 161 q 256 141 256 149 l 263 103 l 263 96 q 254 56 262 83 q 224 16 245 31 q 176 0 202 0 q 163 1 167 0 q 126 16 141 4 q 34 262 34 91 q 35 301 34 288 l 35 334 m 368 623 q 305 555 321 623 q 304 537 304 549 l 304 533 l 304 529 q 380 444 312 444 q 444 526 444 444 l 444 537 q 441 555 444 544 q 380 623 425 623 l 368 623 z "},"S":{"ha":610,"x_min":31,"x_max":586,"o":"m 171 545 l 171 552 q 176 585 171 570 q 391 764 231 764 l 434 764 q 586 578 586 764 q 514 488 586 507 q 487 486 505 486 l 486 486 q 411 498 448 487 q 351 445 374 498 q 350 431 350 441 q 354 412 350 420 q 372 392 361 399 q 500 214 490 311 q 501 205 500 212 q 502 193 502 198 l 502 191 l 502 190 q 454 80 502 123 q 247 0 366 0 l 240 0 q 91 35 153 0 q 31 155 31 69 l 31 165 q 113 266 31 229 l 118 266 q 176 258 148 263 q 195 255 190 255 q 243 267 220 255 q 277 323 277 285 l 277 324 l 277 328 q 263 366 277 349 q 171 545 171 467 z "},"T":{"ha":602,"x_min":23,"x_max":579,"o":"m 23 597 l 23 600 q 83 731 26 678 l 84 731 q 171 764 121 764 l 178 764 q 338 758 285 758 q 406 761 357 758 q 419 762 410 761 q 434 762 429 762 q 481 760 452 762 l 500 758 q 525 751 518 755 q 579 617 579 723 l 579 610 q 526 506 559 506 q 396 407 396 491 l 396 400 q 425 155 425 193 q 420 99 425 125 q 334 7 412 43 q 304 0 317 0 q 281 12 296 0 q 249 43 266 23 q 220 97 232 64 q 208 168 208 130 q 210 197 208 178 q 232 358 232 319 q 145 477 232 477 l 91 477 q 26 582 49 477 q 23 597 23 590 z "},"U":{"ha":624,"x_min":35,"x_max":590,"o":"m 35 365 q 140 764 35 764 l 189 764 q 244 667 244 764 l 244 640 q 235 410 244 515 q 233 382 233 401 q 235 354 233 363 q 324 269 247 269 l 350 269 q 431 382 411 269 q 432 386 431 384 q 433 389 433 388 q 406 647 433 433 l 406 681 q 426 732 406 711 q 496 764 453 764 l 498 764 l 503 764 q 585 640 564 764 q 590 557 590 604 l 590 555 l 590 309 q 572 103 590 144 q 400 5 547 30 q 335 0 372 0 l 334 0 q 297 1 309 0 q 84 83 134 15 q 35 351 35 152 l 35 365 z "},"V":{"ha":613,"x_min":26,"x_max":582,"o":"m 30 640 q 104 757 45 719 q 123 762 111 762 q 186 743 159 760 l 189 741 q 262 623 228 707 q 297 496 283 571 q 316 457 305 457 l 326 457 q 336 460 331 457 q 343 468 342 465 q 366 581 366 521 l 366 585 l 366 589 q 468 758 370 700 q 496 764 479 764 q 525 758 514 764 q 554 725 540 751 q 575 677 568 699 q 582 654 582 656 q 534 296 582 423 q 335 0 422 0 l 326 0 l 323 0 q 206 58 251 0 q 34 510 103 171 q 26 609 26 559 q 26 619 26 614 q 28 630 27 624 q 30 640 30 636 z "},"W":{"ha":617,"x_min":30,"x_max":585,"o":"m 328 537 q 338 529 330 536 q 353 515 346 522 l 361 510 q 368 514 362 510 q 380 530 373 518 q 388 556 387 541 q 446 727 396 646 q 510 764 480 764 q 537 754 524 764 q 585 585 581 727 l 585 526 q 568 358 583 458 q 422 0 513 22 l 418 0 q 365 52 389 0 q 330 153 345 102 q 321 159 326 159 q 315 155 319 159 q 303 127 312 148 q 289 95 294 107 q 205 0 252 0 q 127 75 157 0 q 30 534 38 323 l 30 548 q 81 753 30 711 q 106 764 92 762 l 111 764 l 118 764 q 248 570 206 754 q 262 517 252 541 q 278 505 267 505 q 294 515 289 505 q 311 541 307 541 l 313 541 q 328 537 321 541 z "},"X":{"ha":620,"x_min":33,"x_max":587,"o":"m 266 521 l 317 521 q 363 538 343 521 q 388 582 384 556 q 517 764 434 764 q 587 670 587 746 q 540 494 581 541 q 505 463 529 481 q 465 429 480 445 q 449 400 449 414 l 449 399 q 473 338 449 372 q 558 237 529 298 q 587 109 587 175 l 587 95 q 496 0 571 0 l 458 0 q 440 9 453 0 q 407 41 427 19 q 370 91 387 64 q 334 209 340 144 q 312 292 327 281 l 311 292 q 295 285 301 292 q 289 270 289 278 q 118 0 251 0 q 33 136 53 0 l 33 140 q 69 264 33 209 q 165 378 156 347 l 165 382 l 133 434 q 66 557 99 486 q 33 675 33 628 q 99 757 33 719 q 127 764 113 764 q 203 709 163 764 q 220 675 214 688 q 251 563 240 628 q 266 521 256 521 z "},"Y":{"ha":608,"x_min":26,"x_max":582,"o":"m 309 545 l 308 544 q 335 582 327 559 l 338 590 q 365 663 349 628 q 411 732 384 704 q 484 764 442 764 q 547 742 519 764 q 582 662 582 713 l 582 648 q 495 378 582 477 q 410 298 418 324 l 410 297 q 420 236 411 270 q 435 138 434 163 q 336 1 435 19 l 335 1 q 315 0 328 0 q 236 30 273 0 q 172 113 187 72 q 168 136 168 125 q 170 151 168 146 q 183 259 182 212 l 183 286 l 183 288 q 179 311 183 301 q 163 339 175 327 q 62 453 99 385 q 26 604 26 522 l 26 605 q 102 757 26 716 q 132 764 114 764 l 133 764 q 225 709 176 764 q 283 587 274 655 q 304 545 289 545 l 309 545 z "},"Z":{"ha":623,"x_min":35,"x_max":590,"o":"m 35 560 q 50 621 35 591 q 85 677 66 656 q 267 764 160 764 l 393 764 l 403 764 q 502 727 457 760 q 590 598 590 665 l 590 586 q 509 418 590 524 q 411 350 469 368 q 346 317 354 331 q 343 307 343 309 l 343 305 l 343 293 q 358 282 347 282 q 377 288 366 282 q 471 307 423 307 l 475 307 l 484 307 l 495 307 q 590 165 590 307 q 282 0 590 0 l 281 0 l 279 0 q 175 14 224 0 q 35 153 35 52 q 144 354 35 239 q 149 358 146 357 q 212 408 209 392 l 212 414 q 205 431 212 425 q 187 438 198 438 l 184 438 q 125 433 130 433 l 123 433 q 120 433 122 433 q 117 434 118 434 q 35 522 35 458 l 35 560 z "},"[":{"ha":500,"x_min":34,"x_max":475,"o":"m 34 241 q 49 585 38 492 q 130 732 57 674 q 213 764 165 761 l 350 764 q 438 674 420 764 q 423 623 435 643 q 390 598 411 604 q 352 591 369 593 q 311 593 335 590 q 282 595 288 595 q 248 531 262 595 q 228 392 233 467 q 235 288 225 357 q 262 201 245 220 q 307 174 285 174 q 345 178 320 174 q 390 188 369 183 q 431 193 411 193 q 463 186 452 194 q 475 159 475 178 q 421 60 475 121 q 294 0 368 0 q 279 1 289 0 q 263 1 269 1 q 102 75 168 5 q 34 239 35 144 l 34 241 z "},"\\":{"ha":335,"x_min":27,"x_max":307,"o":"m 27 703 q 50 764 27 743 l 62 764 q 152 675 92 764 q 307 136 307 301 q 300 75 304 95 q 235 0 263 0 q 190 54 209 14 q 27 696 27 509 l 27 703 z "},"]":{"ha":500,"x_min":26,"x_max":468,"o":"m 468 241 l 468 239 q 400 75 467 144 q 239 1 334 5 q 222 1 233 1 q 206 0 212 0 q 79 60 133 0 q 26 159 26 121 q 37 186 26 178 q 69 193 49 194 q 111 188 90 193 q 156 178 132 183 q 194 174 180 174 q 239 201 216 174 q 267 288 256 220 q 274 392 277 357 q 254 530 269 465 q 218 595 240 595 q 190 593 214 595 q 149 591 165 590 q 112 599 133 593 q 79 625 91 605 q 64 675 66 644 q 151 764 81 764 l 288 764 q 372 732 336 761 q 453 585 445 674 q 468 241 464 492 z "},"^":{"ha":532,"x_min":22,"x_max":517,"o":"m 243 764 q 342 657 271 764 q 465 444 412 551 q 502 338 517 338 l 252 505 l 46 315 q 43 432 22 332 q 126 648 64 532 q 237 764 189 764 l 243 764 z "},"_":{"ha":610,"x_min":27,"x_max":582,"o":"m 27 12 l 42 43 q 487 87 42 69 l 495 87 q 576 19 541 87 q 582 -4 582 5 q 576 -26 582 -12 q 473 -87 551 -87 q 222 -68 277 -68 q 27 -7 47 -68 l 27 12 z "},"`":{"ha":146,"x_min":31,"x_max":118,"o":"m 56 762 q 64 764 58 764 q 87 751 79 764 q 118 665 118 701 l 118 654 q 110 635 118 643 q 91 628 102 628 q 81 629 84 628 q 31 741 39 646 l 31 745 q 56 762 31 754 z "},"a":{"ha":620,"x_min":33,"x_max":587,"o":"m 33 206 q 127 463 33 342 q 174 503 145 481 q 336 556 248 556 q 401 548 372 556 l 403 548 q 587 227 587 465 l 587 170 l 587 167 q 576 88 587 121 q 477 0 548 0 l 472 0 q 434 8 453 0 q 370 57 396 26 q 293 100 334 100 l 282 100 q 251 79 275 100 q 206 34 220 50 q 157 0 176 0 l 142 0 q 90 26 109 0 q 33 191 35 98 l 33 206 m 338 407 q 277 347 289 407 q 301 296 277 316 q 350 274 323 274 q 378 281 365 274 q 412 347 412 297 l 412 353 q 338 407 412 397 z "},"b":{"ha":620,"x_min":34,"x_max":593,"o":"m 41 363 l 41 381 q 42 406 41 397 q 159 545 54 514 q 340 530 251 574 q 429 410 429 487 q 396 321 427 366 q 391 307 391 313 q 392 300 391 302 q 425 285 399 281 q 472 294 445 294 q 511 288 491 294 q 589 190 585 260 q 515 58 593 114 q 273 1 425 -8 l 269 1 q 102 52 171 1 q 34 175 34 103 q 39 269 34 202 q 41 363 43 336 m 277 492 q 218 466 232 486 q 217 423 203 446 q 275 387 235 393 q 347 401 316 381 q 370 453 378 420 q 277 492 358 502 m 361 205 l 361 203 q 351 179 351 191 q 354 167 351 175 q 437 121 370 117 q 506 139 486 121 q 522 190 526 157 q 480 233 524 220 q 413 235 448 243 q 361 205 378 227 z "},"c":{"ha":617,"x_min":31,"x_max":586,"o":"m 31 254 q 163 514 31 435 q 410 544 273 579 l 411 544 q 491 472 477 521 q 494 448 494 464 q 490 418 494 431 q 458 380 477 380 l 374 380 q 302 286 302 380 l 302 277 q 347 224 304 240 q 426 231 389 208 q 457 254 429 232 q 484 264 471 263 l 487 264 l 490 264 q 502 263 498 264 q 586 155 583 256 l 586 153 q 526 62 586 98 q 345 0 423 0 q 294 3 327 0 q 127 52 160 19 q 31 248 31 127 l 31 254 z "},"d":{"ha":621,"x_min":34,"x_max":589,"o":"m 34 251 q 102 556 52 556 l 178 556 q 389 536 308 556 q 589 313 589 469 l 589 247 q 563 148 589 205 q 537 104 553 125 q 232 0 453 0 l 218 0 q 34 28 54 0 l 34 251 m 465 406 q 397 351 410 406 l 397 342 l 397 332 q 411 311 401 320 q 490 290 439 282 q 549 332 537 298 q 551 337 551 334 q 552 342 552 340 q 553 351 553 346 q 541 382 553 370 q 496 403 524 399 q 467 406 477 406 l 465 406 z "},"e":{"ha":612,"x_min":31,"x_max":605,"o":"m 31 301 q 61 425 31 340 q 134 517 85 486 q 254 556 189 556 l 298 556 q 476 453 476 556 q 454 430 476 438 q 359 407 412 423 q 322 375 330 396 q 335 338 315 354 q 365 324 349 326 q 449 301 446 312 q 457 286 457 297 q 446 269 457 277 q 389 248 412 259 q 363 222 369 239 q 368 193 357 206 l 370 190 q 448 165 395 159 q 514 176 496 172 q 562 155 543 176 q 574 64 605 111 q 465 7 543 18 q 372 0 414 0 l 368 0 q 161 49 251 1 q 49 170 72 96 q 31 294 31 227 l 31 301 z "},"f":{"ha":614,"x_min":31,"x_max":587,"o":"m 41 73 q 43 89 41 79 q 46 104 46 99 q 73 431 60 378 q 85 464 79 452 q 191 534 111 506 q 321 556 256 556 q 335 555 326 556 q 350 555 345 555 q 370 553 363 555 q 587 442 587 529 q 484 410 587 414 q 469 408 473 408 q 412 401 444 407 q 275 350 354 392 q 240 305 213 316 l 241 305 l 309 277 q 321 263 319 275 q 273 218 321 231 l 271 218 q 214 164 229 203 q 212 77 199 125 q 216 54 212 76 q 206 35 216 42 q 60 0 160 0 l 39 0 q 33 4 34 0 q 32 16 31 8 q 35 31 33 23 q 39 52 37 39 q 41 73 41 64 z "},"g":{"ha":612,"x_min":31,"x_max":585,"o":"m 31 283 q 49 369 33 324 q 133 499 73 444 q 258 556 194 556 l 286 556 l 288 556 q 374 537 334 556 q 427 475 427 513 l 427 420 q 362 380 427 384 q 312 372 328 377 q 251 300 251 350 q 252 293 251 298 q 252 286 252 288 q 273 198 263 212 q 339 152 290 165 q 354 149 347 149 q 368 152 359 149 q 396 194 391 160 l 396 220 q 408 254 396 239 q 438 274 420 269 l 439 274 q 456 277 450 277 q 499 258 480 277 q 585 84 552 205 l 585 80 q 521 18 585 18 q 461 33 488 18 q 433 43 448 42 l 418 43 q 365 20 400 43 q 296 0 331 0 l 294 0 q 269 1 277 0 q 87 94 157 12 q 31 241 31 156 l 31 244 l 31 283 z "},"h":{"ha":621,"x_min":33,"x_max":587,"o":"m 382 471 l 382 479 l 382 490 q 454 556 389 534 l 456 556 q 499 543 479 556 q 545 494 529 525 q 583 358 582 426 q 587 248 587 271 q 559 73 587 126 q 458 3 529 18 q 434 0 442 0 l 425 0 q 412 3 420 0 q 384 46 384 15 q 385 50 384 47 q 385 53 385 52 q 390 87 387 58 q 396 134 393 115 q 397 149 397 138 q 315 202 397 198 l 290 202 q 227 144 227 194 q 228 129 227 133 q 237 42 237 90 l 237 41 q 231 19 237 28 q 195 0 218 3 l 187 0 q 174 1 178 0 q 118 28 141 8 q 73 95 88 54 q 33 290 33 205 q 60 441 35 373 q 96 524 83 507 q 164 556 125 556 l 167 556 q 213 548 190 556 q 237 435 237 548 q 238 425 237 431 q 239 416 239 419 q 265 363 241 385 q 320 342 289 342 q 372 370 353 342 q 387 418 387 392 l 387 422 q 385 447 387 430 q 382 471 382 464 z "},"i":{"ha":274,"x_min":33,"x_max":241,"o":"m 33 100 q 49 301 41 183 q 121 446 57 439 l 127 446 q 168 437 152 444 q 240 94 194 437 q 241 88 240 92 q 241 83 241 84 q 225 37 241 57 q 132 0 197 0 q 33 76 41 0 l 33 88 l 33 100 m 69 604 l 69 610 q 100 659 81 659 l 157 659 l 159 659 q 195 646 182 659 q 199 636 199 642 l 199 612 q 191 587 199 597 q 161 567 179 572 q 125 556 144 557 q 75 586 96 556 q 69 604 69 591 z "},"j":{"ha":617,"x_min":31,"x_max":586,"o":"m 342 406 q 371 446 345 431 q 427 453 397 460 q 458 442 444 452 q 586 201 586 293 l 586 170 q 564 96 586 129 q 317 0 500 0 l 298 0 q 122 20 179 0 q 31 182 31 58 q 71 244 31 217 q 145 267 104 267 l 146 267 l 149 267 l 152 267 q 192 252 175 266 q 212 218 209 237 q 263 145 224 145 q 361 227 349 145 l 361 232 q 342 400 359 315 l 342 403 l 342 406 m 281 597 l 282 597 q 317 631 282 625 q 336 632 324 632 l 339 632 l 355 632 q 404 591 400 632 q 340 556 404 564 l 336 556 l 334 556 q 298 568 313 556 q 281 597 282 579 z "},"k":{"ha":616,"x_min":34,"x_max":589,"o":"m 34 167 l 34 176 l 34 186 q 49 419 34 315 q 85 530 61 495 q 140 556 104 556 l 141 556 l 142 556 q 187 543 164 556 q 220 496 214 525 q 248 418 239 418 q 256 415 254 415 q 263 418 260 415 q 297 452 264 418 q 366 522 330 487 q 415 556 403 556 l 426 556 q 506 473 506 556 q 496 434 503 450 l 496 433 l 495 431 q 385 313 465 373 l 385 311 l 385 307 q 418 278 385 285 q 589 81 589 222 l 589 77 q 511 0 583 12 l 509 0 l 507 0 q 477 4 491 0 q 363 60 416 22 q 266 149 309 98 q 248 156 256 156 q 235 151 243 156 q 227 132 227 144 l 227 130 q 228 113 227 118 q 229 95 229 107 q 227 66 229 85 q 202 22 222 42 q 148 0 180 0 l 146 0 q 43 94 72 0 q 34 167 34 126 z "},"l":{"ha":614,"x_min":34,"x_max":594,"o":"m 34 255 l 34 258 q 39 343 34 307 q 180 556 60 556 q 218 542 202 556 q 237 507 235 528 q 244 431 244 467 l 244 406 q 237 194 244 305 l 237 193 q 241 179 237 184 q 290 179 254 176 q 382 186 327 182 q 446 191 437 191 q 453 191 448 191 q 460 190 458 190 l 480 186 q 581 133 568 161 q 583 77 594 103 q 376 3 562 24 q 334 0 349 0 l 328 0 l 326 0 q 269 4 297 0 l 250 7 q 34 210 34 41 l 34 228 l 34 255 z "},"m":{"ha":618,"x_min":33,"x_max":586,"o":"m 334 389 q 347 422 343 401 q 452 556 385 556 q 538 486 496 556 q 545 469 544 475 q 586 294 586 353 q 564 72 586 159 q 563 67 564 71 q 562 61 562 64 q 558 54 560 60 q 555 46 556 49 q 502 5 540 16 q 427 7 464 -5 q 378 50 391 19 l 377 52 q 376 59 377 54 q 374 65 374 64 q 343 201 351 201 q 338 202 342 202 q 328 198 332 202 q 323 191 326 197 q 308 170 316 178 q 297 164 302 164 q 285 171 289 164 l 270 190 q 259 194 266 194 q 248 190 252 194 q 236 94 236 190 q 228 61 236 80 q 140 0 199 0 l 136 0 q 33 199 33 0 q 35 283 33 256 q 38 294 35 286 q 172 555 90 530 q 175 555 174 555 q 178 556 176 556 l 179 556 q 212 548 198 556 q 274 477 250 529 q 297 430 285 456 q 315 394 309 404 q 321 384 320 384 q 334 389 330 384 z "},"n":{"ha":621,"x_min":34,"x_max":589,"o":"m 363 363 q 362 396 362 374 l 362 399 q 365 461 362 412 q 438 555 376 549 q 443 555 439 555 q 448 556 446 556 q 463 555 457 556 q 494 545 475 553 q 517 526 505 540 q 587 300 583 435 q 589 256 589 286 q 578 111 589 187 q 576 102 578 104 q 563 65 568 77 q 454 1 537 7 q 330 47 370 -5 l 328 49 q 275 180 297 91 q 266 193 274 187 q 259 194 264 194 q 248 189 252 194 q 243 172 243 183 l 243 171 q 254 92 248 119 q 256 73 256 79 q 255 57 256 62 q 171 0 244 0 l 161 0 q 104 22 144 0 q 34 241 34 62 l 34 263 q 58 444 34 340 q 71 479 62 463 q 180 556 104 556 q 263 483 213 556 q 316 380 294 438 q 346 320 339 320 l 349 320 q 353 319 351 319 l 354 319 q 365 331 365 319 l 363 363 z "},"o":{"ha":617,"x_min":31,"x_max":586,"o":"m 31 298 q 43 384 33 343 q 104 491 60 449 q 264 556 170 556 l 271 556 q 369 537 323 556 q 545 392 491 492 q 586 243 585 321 l 586 193 q 542 90 585 137 q 429 20 499 43 q 320 0 378 3 l 297 0 q 142 49 213 0 q 31 285 65 100 l 31 296 l 31 298 m 381 426 q 326 366 326 426 l 326 365 q 328 343 326 357 q 377 288 340 296 q 391 286 381 286 q 411 289 397 286 q 464 330 445 297 q 473 369 473 347 l 473 372 q 419 425 473 412 q 406 426 415 426 l 404 426 l 381 426 z "},"p":{"ha":618,"x_min":33,"x_max":587,"o":"m 33 326 q 90 461 35 384 q 292 556 145 540 l 298 556 q 419 541 378 556 q 585 388 564 481 q 587 357 587 377 l 587 346 l 583 288 q 560 251 583 270 q 469 213 517 218 q 362 172 366 197 q 369 144 362 156 q 376 130 370 141 q 387 111 382 119 q 396 79 396 95 q 387 46 396 60 q 377 33 381 38 q 254 0 355 3 l 235 0 q 201 4 217 0 q 103 60 145 16 q 33 326 33 138 m 438 469 l 435 469 q 388 445 404 469 q 378 393 372 419 q 415 355 387 366 l 416 355 q 471 355 444 345 q 505 388 499 366 l 505 391 q 505 395 505 392 q 506 399 506 397 q 503 414 506 406 q 438 469 479 469 z "},"q":{"ha":612,"x_min":31,"x_max":586,"o":"m 31 263 q 34 302 31 290 q 68 411 45 362 q 259 556 136 556 l 274 556 q 403 522 354 556 q 496 269 496 477 l 492 201 q 522 178 511 178 q 586 81 586 164 q 498 0 586 14 l 487 0 q 414 33 452 0 q 307 4 350 14 q 267 0 286 0 q 239 1 248 0 q 230 4 236 3 q 221 5 224 5 q 31 263 31 50 m 289 407 q 224 345 240 407 l 224 321 q 283 254 231 254 q 358 326 358 282 l 358 350 q 289 407 358 396 z "},"r":{"ha":616,"x_min":33,"x_max":589,"o":"m 34 243 q 91 457 34 335 q 283 556 145 556 l 288 556 q 401 530 346 556 l 404 529 q 471 469 446 509 q 496 381 496 430 q 484 319 496 347 q 448 233 469 285 l 448 229 q 458 212 448 218 q 481 205 465 208 q 563 170 533 197 q 589 115 589 146 q 585 91 589 103 q 488 3 559 15 q 461 0 472 0 l 460 0 q 285 118 406 0 l 281 118 l 277 118 q 255 103 259 118 l 262 75 l 262 71 q 252 41 260 60 q 217 9 243 20 q 161 1 191 -1 q 125 12 142 4 q 33 190 33 66 l 33 209 q 34 241 34 220 l 34 243 m 366 453 q 304 404 320 453 q 302 392 302 400 l 302 391 l 302 385 q 378 323 311 323 q 442 384 442 323 l 442 391 q 439 404 442 396 q 378 453 423 453 l 366 453 z "},"s":{"ha":614,"x_min":30,"x_max":585,"o":"m 170 396 l 170 401 q 175 425 170 415 q 389 556 231 556 l 433 556 q 585 420 585 556 q 513 355 585 368 q 486 353 494 353 q 410 362 442 355 q 351 323 374 362 q 349 313 349 317 q 353 300 349 305 q 372 285 358 290 q 500 156 490 225 l 500 140 q 453 58 499 85 q 240 0 361 0 q 90 26 155 0 q 30 113 30 50 l 30 121 q 111 193 30 165 l 117 193 q 175 187 157 190 q 194 186 182 186 q 241 194 220 186 q 274 236 274 208 l 275 237 q 262 267 275 254 q 170 396 170 340 z "},"t":{"ha":610,"x_min":26,"x_max":582,"o":"m 26 471 l 27 472 q 33 497 27 490 q 56 513 38 505 q 85 529 75 521 l 87 530 q 172 556 126 556 l 180 556 l 340 551 q 410 553 358 551 l 437 553 q 484 552 468 553 l 505 551 q 528 545 514 551 q 582 441 582 524 l 582 434 q 570 403 576 411 q 552 396 563 395 l 528 396 q 492 393 517 396 q 399 321 399 377 l 399 316 q 427 122 427 153 q 423 77 427 98 q 336 5 415 35 q 307 0 324 0 q 248 39 285 0 q 210 133 210 77 q 213 155 210 141 q 235 282 235 251 q 148 377 235 377 l 94 377 q 28 460 50 377 q 26 471 26 468 z "},"u":{"ha":623,"x_min":34,"x_max":589,"o":"m 34 266 q 138 556 34 556 l 187 556 q 243 486 243 556 l 243 468 q 233 297 243 374 q 232 278 232 290 q 233 258 232 264 q 323 195 245 195 l 349 195 q 430 278 410 195 q 431 281 430 279 q 431 283 431 282 q 404 471 431 315 l 404 495 q 425 532 404 515 q 492 556 458 556 l 496 556 l 502 556 q 583 465 563 556 q 589 406 589 438 l 589 403 l 589 225 q 571 75 589 104 q 399 4 545 23 q 334 0 366 0 l 332 0 q 296 1 308 0 q 83 60 130 12 q 34 255 34 111 l 34 266 z "},"v":{"ha":616,"x_min":27,"x_max":583,"o":"m 31 465 q 104 551 46 522 q 125 555 113 555 q 186 541 159 552 l 190 540 q 262 453 227 517 q 298 361 286 411 q 317 332 307 332 l 327 332 q 338 335 332 332 q 345 340 343 338 q 368 423 368 382 l 368 426 l 368 429 q 469 551 372 507 q 498 556 488 556 q 526 551 507 556 q 555 527 541 545 q 576 492 570 509 l 583 476 q 536 216 583 308 q 336 0 423 0 l 327 0 q 208 42 254 0 q 35 372 104 123 q 27 442 27 407 l 27 444 q 31 465 27 445 z "},"w":{"ha":617,"x_min":30,"x_max":585,"o":"m 328 391 q 345 380 330 391 q 361 370 359 370 q 388 404 385 377 q 446 529 397 473 q 510 555 480 555 q 537 549 526 555 q 585 426 581 529 l 585 382 q 568 260 583 331 q 422 0 513 15 l 418 0 q 365 38 387 0 q 330 111 343 76 q 321 115 328 115 q 315 111 317 115 q 302 91 311 106 q 289 69 293 76 q 205 0 252 0 q 127 54 157 0 q 30 388 38 235 l 30 399 q 81 547 30 517 q 106 555 92 553 l 111 555 l 118 555 q 248 415 206 549 q 262 376 252 392 q 278 366 269 366 q 294 374 286 366 q 311 393 307 393 l 313 393 q 328 391 320 393 z "},"x":{"ha":621,"x_min":34,"x_max":589,"o":"m 252 410 q 270 372 255 396 q 297 345 285 347 q 320 342 311 342 q 347 346 335 342 q 373 377 361 351 q 389 423 385 403 q 518 556 437 556 q 589 487 589 544 q 541 359 582 395 q 495 336 530 350 q 432 311 460 323 q 404 289 404 298 l 404 288 q 427 243 404 267 q 589 79 589 159 l 589 69 q 498 0 572 0 l 460 0 q 441 7 454 0 q 408 30 429 14 q 372 66 388 46 q 335 152 340 106 q 313 212 328 202 l 312 212 l 309 212 q 290 197 296 212 q 119 0 252 0 q 34 99 54 0 q 71 191 34 152 q 127 227 94 208 q 182 258 161 245 q 206 277 203 270 l 206 279 q 189 296 206 281 q 145 334 171 311 q 94 384 119 357 q 52 441 69 411 q 34 492 34 471 q 100 551 34 522 q 129 556 111 556 q 205 517 163 556 q 213 504 208 513 q 221 491 218 495 q 252 410 243 450 z "},"y":{"ha":612,"x_min":26,"x_max":582,"o":"m 309 397 q 335 425 327 408 l 338 430 q 365 483 347 456 q 411 533 381 507 q 486 556 445 556 q 547 540 514 556 q 582 483 582 521 l 582 481 l 582 472 q 558 378 582 415 q 484 305 534 340 q 445 281 472 296 q 408 257 418 266 q 390 227 397 248 q 387 174 382 205 q 395 131 389 155 q 400 102 400 107 q 301 3 400 15 q 262 1 275 -3 q 237 23 250 4 q 218 87 227 38 q 203 181 209 137 q 197 227 197 225 q 180 247 190 239 q 68 336 110 285 q 26 441 26 387 q 102 551 26 519 q 132 556 114 556 l 133 556 q 225 517 175 556 q 283 427 269 483 q 304 397 292 397 l 309 397 z "},"z":{"ha":623,"x_min":34,"x_max":589,"o":"m 34 407 q 49 452 37 433 q 84 492 62 472 q 258 555 160 555 l 266 555 l 392 555 l 401 555 q 500 529 453 553 q 589 435 589 486 l 589 426 q 530 366 589 412 q 408 276 471 320 q 345 231 346 232 q 342 222 342 225 l 342 221 q 357 205 342 205 q 376 209 368 205 q 469 222 418 222 l 473 222 l 494 222 q 589 121 589 222 q 281 0 589 0 l 278 0 q 174 9 221 0 q 34 111 34 38 q 77 174 34 130 q 165 256 121 218 q 210 297 210 294 l 210 301 q 202 315 210 309 q 183 319 194 320 q 97 338 160 316 q 34 380 34 359 l 34 407 z "},"{":{"ha":608,"x_min":26,"x_max":581,"o":"m 26 350 q 65 450 26 431 q 212 688 126 450 q 407 764 309 764 l 412 764 q 581 663 581 743 q 570 616 575 631 q 429 515 530 515 q 288 408 357 515 l 279 382 q 296 334 283 355 q 425 260 340 260 l 480 260 q 563 132 547 260 l 564 100 q 401 0 564 16 q 267 41 296 14 q 117 236 216 50 q 26 338 26 277 l 26 350 z "},"|":{"ha":221,"x_min":35,"x_max":187,"o":"m 35 301 q 102 764 43 764 l 109 764 q 187 388 187 708 l 187 271 q 102 0 187 0 l 83 0 l 64 7 q 35 240 35 31 l 35 301 z "},"}":{"ha":609,"x_min":30,"x_max":583,"o":"m 583 350 l 583 338 q 494 236 583 277 q 343 41 395 50 q 209 0 315 14 q 46 100 46 16 l 46 132 q 130 260 62 260 l 186 260 q 313 334 269 260 q 331 382 327 359 l 323 408 q 180 515 254 515 q 41 616 80 515 q 30 663 35 631 q 198 764 30 743 l 203 764 q 399 688 301 764 q 544 450 484 450 q 583 350 583 431 z "},"~":{"ha":856,"x_min":30,"x_max":827,"o":"m 264 671 q 486 563 393 671 q 526 544 502 544 l 533 544 q 562 623 541 587 q 639 666 601 666 q 818 473 761 666 q 827 396 827 437 l 827 385 q 709 187 827 240 q 625 175 669 175 l 624 175 l 623 175 l 608 175 q 419 240 483 175 l 397 252 q 208 161 353 161 l 163 161 q 34 292 34 161 q 30 373 30 332 l 30 380 l 30 385 q 152 640 30 532 q 264 671 206 666 z "},"«":{"ha":617,"x_min":31,"x_max":586,"o":"m 31 370 l 31 370 q 61 481 31 431 q 245 578 141 578 q 247 578 247 578 l 250 579 q 267 559 260 579 q 208 434 262 500 q 172 397 172 410 q 171 387 171 393 q 175 373 171 380 q 279 252 279 313 q 208 184 279 184 q 123 205 164 186 q 31 370 31 269 m 338 370 l 338 370 q 368 481 338 431 q 553 578 448 578 l 555 578 q 557 579 556 579 q 574 559 567 579 q 515 434 567 498 q 480 397 480 410 q 477 387 477 389 q 481 373 477 380 q 586 252 586 313 q 515 184 586 184 q 430 205 471 187 q 338 370 338 269 z "},"»":{"ha":617,"x_min":33,"x_max":587,"o":"m 587 370 q 495 205 587 269 q 410 184 454 187 q 339 252 339 184 q 444 373 339 313 q 448 387 448 380 q 445 397 448 389 q 410 434 445 410 q 351 559 358 498 q 368 579 358 579 q 372 578 369 579 q 557 481 477 578 q 587 370 587 431 l 587 370 m 281 370 q 189 205 281 269 q 103 184 148 187 q 33 254 33 184 q 136 373 33 315 q 140 387 140 380 q 138 397 140 393 q 103 434 138 410 q 43 557 49 500 q 61 579 50 579 q 65 578 62 579 q 250 481 170 578 q 281 370 281 430 l 281 370 z "},"Ф":{"ha":69,"x_min":0,"x_max":0,"o":""},"Э":{"ha":69,"x_min":0,"x_max":0,"o":""},"ф":{"ha":69,"x_min":0,"x_max":0,"o":""},"–":{"ha":757,"x_min":31,"x_max":727,"o":"m 31 389 l 43 411 q 621 444 43 431 q 727 387 727 423 q 609 320 727 320 l 547 320 q 366 330 518 320 q 31 377 31 330 l 31 389 z "},"‘":{"ha":255,"x_min":26,"x_max":227,"o":"m 28 728 q 26 736 26 734 q 47 762 34 753 l 49 764 l 53 764 l 54 764 q 187 688 87 764 q 220 656 205 677 q 227 646 225 651 l 227 644 q 222 633 227 637 l 217 632 q 205 629 209 629 l 202 629 q 176 633 189 629 q 137 648 149 642 q 28 728 50 694 z "},"’":{"ha":146,"x_min":31,"x_max":119,"o":"m 95 762 q 119 743 119 754 l 119 741 q 66 627 111 644 q 57 625 64 625 q 31 651 31 625 l 31 662 q 61 751 31 701 q 85 764 69 764 q 95 762 92 764 z "},"“":{"ha":269,"x_min":31,"x_max":241,"o":"m 178 762 q 187 764 180 764 q 210 751 202 764 q 241 665 241 701 l 241 654 q 233 635 241 643 q 214 628 225 628 q 203 629 206 628 q 153 741 161 646 l 153 745 q 178 762 153 754 m 54 762 q 64 764 57 764 q 87 751 79 764 q 118 665 118 701 l 118 654 q 110 635 118 643 q 91 628 102 628 q 80 631 85 628 q 31 742 39 650 l 31 745 q 54 762 31 754 z "},"”":{"ha":269,"x_min":31,"x_max":241,"o":"m 94 762 q 118 745 118 754 l 118 741 q 68 629 110 646 q 57 628 65 628 q 39 635 46 628 q 31 654 31 643 l 31 665 q 61 751 31 704 q 84 764 69 764 q 94 762 91 764 m 217 762 q 241 745 241 754 l 241 742 q 191 631 233 650 q 180 628 186 628 q 161 635 170 628 q 153 654 153 643 l 153 665 q 184 751 153 701 q 208 764 193 764 q 217 762 214 764 z "},"„":{"ha":342,"x_min":26,"x_max":316,"o":"m 88 -1 q 111 -19 111 -9 l 111 -23 q 62 -132 103 -115 q 53 -133 60 -133 q 34 -125 42 -133 q 26 -109 26 -118 l 26 -98 q 56 -12 26 -60 q 79 0 65 0 q 88 -1 85 0 m 292 -1 l 293 -1 q 316 -19 316 -9 l 316 -23 q 267 -130 308 -114 q 256 -133 262 -133 q 239 -125 247 -133 q 231 -107 231 -117 l 231 -98 q 260 -12 231 -60 q 282 0 266 0 q 292 -1 289 0 z "},"‹":{"ha":608,"x_min":26,"x_max":582,"o":"m 26 309 q 156 472 26 353 q 418 685 286 591 q 556 762 551 779 q 499 627 552 720 q 395 458 446 534 q 345 376 345 381 q 403 308 345 374 q 522 157 461 241 q 582 28 582 72 q 452 12 582 -22 q 161 145 300 52 q 26 309 26 236 z "},"›":{"ha":608,"x_min":26,"x_max":582,"o":"m 582 309 q 415 125 582 227 q 129 7 266 34 q 26 28 26 -15 q 86 157 26 72 q 205 308 146 241 q 264 376 264 374 q 214 458 264 381 q 110 627 163 534 q 53 762 57 720 q 190 685 58 779 q 452 472 321 591 q 582 309 582 353 z "}}}
